# xmcd
#
# Track frame offsets:
#	150
#	10157
#	16618
#	26978
#	37276
#	46646
#	57246
#	67935
#	85624
#	94317
#	104477
#	133742
#	153942
#	165260
#	179111
#	191484
#	202751
#	213986
#
# Disc length: 2996 seconds
#
# Revision: 0
# Processed by: cddbd v1.5.2PL0 Copyright (c) Steve Scherf et al.
# Submitted via: EZCDAudioConverter 1.2.3.1
#
DISCID=e70bb212
DTITLE=kim fowley - wildfire 2/2
DYEAR=1900
DGENRE=
TTITLE0=one man band
TTITLE1=ode to sweet sixteen
TTITLE2=good clean fun
TTITLE3=search for a teenage woman
TTITLE4=energy
TTITLE5=baby rocked her dolly
TTITLE6=motorcycle
TTITLE7=kangaroo
TTITLE8=lights the blind and lame can see
TTITLE9=good to be around
TTITLE10=the great telephone robbery
TTITLE11=i'm not young anymore
TTITLE12=wild weekend
TTITLE13=pictures of matchstick men
TTITLE14=savage in the sun
TTITLE15=sunshine of your love
TTITLE16=classical gas
TTITLE17=fresno, 1963
EXTD=
EXTT0=
EXTT1=
EXTT2=
EXTT3=
EXTT4=
EXTT5=
EXTT6=
EXTT7=
EXTT8=
EXTT9=
EXTT10=
EXTT11=
EXTT12=
EXTT13=
EXTT14=
EXTT15=
EXTT16=
EXTT17=
PLAYORDER=
